<svg width="240" height="100" viewBox="0 0 240 100" fill="none" xmlns="http://www.w3.org/2000/svg">
<path d="M48.2099 77.064C43.2749 72.539 38.0049 69.979 32.0499 68.859C29.3849 68.359 26.7149 67.979 23.9849 67.969C21.2899 67.959 20.3149 66.989 20.3099 64.329C20.2849 50.759 20.3049 37.184 20.2949 23.614C20.2949 21.839 20.8749 20.504 22.7649 20.134C30.6399 18.579 43.1749 24.039 47.4399 30.839C47.9149 31.599 48.2249 32.374 48.2249 33.294C48.2049 47.654 48.2099 62.004 48.2099 77.064Z" fill="white"/>
<path d="M52.7899 77.054C52.7899 62.014 52.7999 47.664 52.7799 33.319C52.7749 31.464 53.9099 30.199 54.9899 28.989C61.1199 22.134 69.1449 20.019 77.9549 20.154C80.1699 20.189 80.7249 21.889 80.7149 23.869C80.6899 31.134 80.7049 38.399 80.7049 45.664C80.7049 51.879 80.6849 58.094 80.7149 64.309C80.7249 66.484 79.8849 67.934 77.5749 67.974C68.4899 68.109 60.1449 70.324 52.7899 77.054Z" fill="white"/>
<path d="M57.7449 78.954C61.7349 75.279 66.5449 73.609 71.6999 72.809C73.7699 72.489 75.8799 72.409 77.9749 72.294C82.2649 72.059 84.9849 69.234 84.9999 64.754C85.0349 54.064 84.9899 43.374 85.0549 32.689C85.0599 31.609 84.1599 29.809 86.4549 29.729C88.3899 29.664 89.6599 30.514 89.9249 32.524C90.0249 33.299 90.0299 34.094 90.0299 34.884C90.0349 48.379 90.0399 61.869 90.0299 75.364C90.0299 79.799 88.8899 80.729 84.6299 79.824C75.7349 77.929 66.7849 77.859 57.7449 78.954Z" fill="white"/>
<path d="M43.3349 79.374C34.1449 77.604 25.2299 78.004 16.3449 79.824C12.1799 80.679 10.9699 79.764 10.9699 75.594C10.9599 61.929 10.9599 48.264 10.9799 34.599C10.9799 33.564 11.0449 32.469 11.3749 31.499C11.9149 29.909 13.3349 29.619 14.8149 29.734C16.5249 29.869 15.9549 31.244 15.9599 32.164C15.9949 42.589 15.9799 53.014 15.9849 63.434C15.9899 69.779 18.1949 71.989 24.6049 72.329C30.5249 72.639 36.2349 73.819 41.2849 77.169C42.0399 77.674 43.0449 77.994 43.3349 79.374Z" fill="white"/>
<rect x="105.5" y="16" width="134" height="68" rx="8" fill="white"/>
<path d="M116.58 37.256C116.58 37.676 116.904 38 117.324 38H121.86C122.232 38 122.532 37.7 122.532 37.328C122.532 36.956 122.232 36.656 121.86 36.656H118.056V30.272C118.056 29.864 117.732 29.54 117.324 29.54C116.904 29.54 116.58 29.864 116.58 30.272V37.256ZM124.094 37.328C124.094 37.736 124.418 38.06 124.838 38.06C125.246 38.06 125.57 37.736 125.57 37.328V30.272C125.57 29.864 125.246 29.54 124.838 29.54C124.418 29.54 124.094 29.864 124.094 30.272V37.328ZM127.818 37.256C127.818 37.676 128.142 38 128.562 38H131.706C133.578 38 134.814 37.196 134.814 35.696V35.672C134.814 34.532 134.13 33.968 133.146 33.632C133.77 33.308 134.346 32.768 134.346 31.76V31.736C134.346 31.172 134.154 30.716 133.782 30.344C133.302 29.864 132.546 29.6 131.586 29.6H128.562C128.142 29.6 127.818 29.924 127.818 30.344V37.256ZM129.27 33.14V30.908H131.394C132.342 30.908 132.87 31.316 132.87 31.976V32C132.87 32.768 132.234 33.14 131.286 33.14H129.27ZM129.27 36.692V34.388H131.61C132.774 34.388 133.338 34.808 133.338 35.516V35.54C133.338 36.296 132.726 36.692 131.718 36.692H129.27ZM136.478 37.328C136.478 37.736 136.802 38.06 137.222 38.06C137.63 38.06 137.954 37.736 137.954 37.328V35.072H139.814L141.854 37.676C142.022 37.904 142.238 38.06 142.574 38.06C142.934 38.06 143.282 37.784 143.282 37.376C143.282 37.148 143.186 36.992 143.042 36.812L141.434 34.784C142.562 34.436 143.342 33.62 143.342 32.276V32.252C143.342 31.52 143.09 30.896 142.646 30.44C142.106 29.912 141.278 29.6 140.222 29.6H137.222C136.802 29.6 136.478 29.924 136.478 30.344V37.328ZM137.954 33.764V30.944H140.102C141.194 30.944 141.842 31.436 141.842 32.336V32.36C141.842 33.212 141.17 33.764 140.114 33.764H137.954ZM149.158 38.144C151.738 38.144 153.562 36.164 153.562 33.8V33.776C153.562 31.412 151.762 29.456 149.182 29.456C146.602 29.456 144.778 31.436 144.778 33.8V33.824C144.778 36.188 146.578 38.144 149.158 38.144ZM149.182 36.776C147.514 36.776 146.326 35.432 146.326 33.8V33.776C146.326 32.144 147.49 30.812 149.158 30.812C150.826 30.812 152.014 32.168 152.014 33.8V33.824C152.014 35.456 150.85 36.776 149.182 36.776ZM158.943 37.256C158.943 37.676 159.267 38 159.687 38H162.075C164.715 38 166.539 36.164 166.539 33.8V33.776C166.539 31.412 164.715 29.6 162.075 29.6H159.687C159.267 29.6 158.943 29.924 158.943 30.344V37.256ZM160.419 36.656V30.944H162.075C163.839 30.944 164.991 32.156 164.991 33.8V33.824C164.991 35.468 163.839 36.656 162.075 36.656H160.419ZM169.074 38H174.018C174.378 38 174.678 37.712 174.678 37.34C174.678 36.98 174.378 36.68 174.018 36.68H169.806V34.424H173.418C173.778 34.424 174.078 34.136 174.078 33.776C174.078 33.404 173.778 33.104 173.418 33.104H169.806V30.92H173.958C174.318 30.92 174.618 30.632 174.618 30.26C174.618 29.9 174.318 29.6 173.958 29.6H169.074C168.654 29.6 168.33 29.924 168.33 30.344V37.256C168.33 37.676 168.654 38 169.074 38ZM116.58 53.328C116.58 53.736 116.904 54.06 117.324 54.06C117.732 54.06 118.056 53.736 118.056 53.328V51.072H119.916L121.956 53.676C122.124 53.904 122.34 54.06 122.676 54.06C123.036 54.06 123.384 53.784 123.384 53.376C123.384 53.148 123.288 52.992 123.144 52.812L121.536 50.784C122.664 50.436 123.444 49.62 123.444 48.276V48.252C123.444 47.52 123.192 46.896 122.748 46.44C122.208 45.912 121.38 45.6 120.324 45.6H117.324C116.904 45.6 116.58 45.924 116.58 46.344V53.328ZM118.056 49.764V46.944H120.204C121.296 46.944 121.944 47.436 121.944 48.336V48.36C121.944 49.212 121.272 49.764 120.216 49.764H118.056ZM125.996 54H130.94C131.3 54 131.6 53.712 131.6 53.34C131.6 52.98 131.3 52.68 130.94 52.68H126.728V50.424H130.34C130.7 50.424 131 50.136 131 49.776C131 49.404 130.7 49.104 130.34 49.104H126.728V46.92H130.88C131.24 46.92 131.54 46.632 131.54 46.26C131.54 45.9 131.24 45.6 130.88 45.6H125.996C125.576 45.6 125.252 45.924 125.252 46.344V53.256C125.252 53.676 125.576 54 125.996 54ZM137.191 54.144C138.547 54.144 139.447 53.712 140.239 53.016C140.371 52.896 140.479 52.716 140.479 52.488C140.479 52.116 140.155 51.804 139.783 51.804C139.603 51.804 139.447 51.876 139.339 51.972C138.727 52.488 138.127 52.776 137.239 52.776C135.631 52.776 134.467 51.444 134.467 49.8V49.776C134.467 48.132 135.643 46.812 137.239 46.812C138.043 46.812 138.667 47.1 139.243 47.568C139.339 47.64 139.483 47.712 139.687 47.712C140.095 47.712 140.419 47.4 140.419 46.992C140.419 46.728 140.287 46.524 140.131 46.404C139.399 45.84 138.547 45.456 137.251 45.456C134.707 45.456 132.919 47.412 132.919 49.8V49.824C132.919 52.236 134.743 54.144 137.191 54.144ZM142.15 53.256C142.15 53.676 142.474 54 142.894 54H147.43C147.802 54 148.102 53.7 148.102 53.328C148.102 52.956 147.802 52.656 147.43 52.656H143.626V46.272C143.626 45.864 143.302 45.54 142.894 45.54C142.474 45.54 142.15 45.864 142.15 46.272V53.256ZM149.004 53.376C149.004 53.76 149.304 54.06 149.688 54.06C150 54.06 150.252 53.892 150.372 53.592L151.08 51.972H155.16L155.844 53.544C155.976 53.856 156.216 54.06 156.564 54.06C156.96 54.06 157.26 53.748 157.26 53.352C157.26 53.256 157.236 53.148 157.176 53.04L154.056 46.08C153.888 45.708 153.6 45.48 153.18 45.48H153.108C152.688 45.48 152.388 45.708 152.22 46.08L149.1 53.04C149.04 53.16 149.004 53.268 149.004 53.376ZM151.644 50.664L153.12 47.268L154.596 50.664H151.644ZM158.861 53.34C158.861 53.748 159.173 54.06 159.581 54.06C159.989 54.06 160.313 53.748 160.313 53.34V48.312L162.353 51.372C162.509 51.612 162.701 51.756 162.965 51.756C163.241 51.756 163.433 51.612 163.589 51.372L165.641 48.288V53.328C165.641 53.724 165.977 54.06 166.373 54.06C166.793 54.06 167.117 53.736 167.117 53.328V46.296C167.117 45.888 166.793 45.552 166.373 45.552H166.217C165.917 45.552 165.701 45.684 165.545 45.936L162.989 49.932L160.445 45.948C160.301 45.72 160.085 45.552 159.761 45.552H159.605C159.185 45.552 158.861 45.888 158.861 46.296V53.34ZM168.703 53.376C168.703 53.76 169.003 54.06 169.387 54.06C169.699 54.06 169.951 53.892 170.071 53.592L170.779 51.972H174.859L175.543 53.544C175.675 53.856 175.915 54.06 176.263 54.06C176.659 54.06 176.959 53.748 176.959 53.352C176.959 53.256 176.935 53.148 176.875 53.04L173.755 46.08C173.587 45.708 173.299 45.48 172.879 45.48H172.807C172.387 45.48 172.087 45.708 171.919 46.08L168.799 53.04C168.739 53.16 168.703 53.268 168.703 53.376ZM171.343 50.664L172.819 47.268L174.295 50.664H171.343ZM182.097 54.144C183.453 54.144 184.353 53.712 185.145 53.016C185.277 52.896 185.385 52.716 185.385 52.488C185.385 52.116 185.061 51.804 184.689 51.804C184.509 51.804 184.353 51.876 184.245 51.972C183.633 52.488 183.033 52.776 182.145 52.776C180.537 52.776 179.373 51.444 179.373 49.8V49.776C179.373 48.132 180.549 46.812 182.145 46.812C182.949 46.812 183.573 47.1 184.149 47.568C184.245 47.64 184.389 47.712 184.593 47.712C185.001 47.712 185.325 47.4 185.325 46.992C185.325 46.728 185.193 46.524 185.037 46.404C184.305 45.84 183.453 45.456 182.157 45.456C179.613 45.456 177.825 47.412 177.825 49.8V49.824C177.825 52.236 179.649 54.144 182.097 54.144ZM187.141 53.328C187.141 53.736 187.465 54.06 187.885 54.06C188.293 54.06 188.617 53.736 188.617 53.328V46.272C188.617 45.864 188.293 45.54 187.885 45.54C187.465 45.54 187.141 45.864 187.141 46.272V53.328ZM194.873 54.144C197.453 54.144 199.277 52.164 199.277 49.8V49.776C199.277 47.412 197.477 45.456 194.897 45.456C192.317 45.456 190.493 47.436 190.493 49.8V49.824C190.493 52.188 192.293 54.144 194.873 54.144ZM194.897 52.776C193.229 52.776 192.041 51.432 192.041 49.8V49.776C192.041 48.144 193.205 46.812 194.873 46.812C196.541 46.812 197.729 48.168 197.729 49.8V49.824C197.729 51.456 196.565 52.776 194.897 52.776ZM201.06 53.34C201.06 53.736 201.384 54.06 201.792 54.06C202.188 54.06 202.512 53.736 202.512 53.34V48.012L206.832 53.604C207.036 53.868 207.252 54.048 207.6 54.048H207.66C208.068 54.048 208.38 53.724 208.38 53.316V46.26C208.38 45.864 208.056 45.54 207.648 45.54C207.252 45.54 206.928 45.864 206.928 46.26V51.42L202.728 45.984C202.524 45.732 202.32 45.552 201.96 45.552H201.804C201.384 45.552 201.06 45.888 201.06 46.296V53.34ZM211.285 54H216.229C216.589 54 216.889 53.712 216.889 53.34C216.889 52.98 216.589 52.68 216.229 52.68H212.017V50.424H215.629C215.989 50.424 216.289 50.136 216.289 49.776C216.289 49.404 215.989 49.104 215.629 49.104H212.017V46.92H216.169C216.529 46.92 216.829 46.632 216.829 46.26C216.829 45.9 216.529 45.6 216.169 45.6H211.285C210.865 45.6 210.541 45.924 210.541 46.344V53.256C210.541 53.676 210.865 54 211.285 54ZM221.52 54.12C223.284 54.12 224.52 53.184 224.52 51.612V51.588C224.52 50.196 223.608 49.56 221.832 49.128C220.212 48.744 219.828 48.456 219.828 47.808V47.784C219.828 47.232 220.332 46.788 221.196 46.788C221.856 46.788 222.48 47.004 223.128 47.424C223.248 47.496 223.368 47.532 223.512 47.532C223.896 47.532 224.208 47.232 224.208 46.848C224.208 46.56 224.052 46.356 223.884 46.26C223.128 45.756 222.276 45.48 221.22 45.48C219.552 45.48 218.352 46.476 218.352 47.916V47.94C218.352 49.488 219.36 50.016 221.148 50.448C222.708 50.808 223.044 51.132 223.044 51.732V51.756C223.044 52.38 222.468 52.812 221.556 52.812C220.644 52.812 219.9 52.5 219.204 51.948C219.108 51.876 218.976 51.816 218.772 51.816C218.388 51.816 218.076 52.116 218.076 52.5C218.076 52.74 218.196 52.944 218.364 53.064C219.3 53.76 220.38 54.12 221.52 54.12ZM119.856 70.12H119.94C120.36 70.12 120.636 69.892 120.792 69.52L123.744 62.56C123.78 62.476 123.816 62.356 123.816 62.248C123.816 61.852 123.492 61.54 123.084 61.54C122.736 61.54 122.472 61.768 122.376 62.02L119.916 68.128L117.492 62.068C117.372 61.756 117.12 61.54 116.736 61.54C116.316 61.54 115.992 61.864 115.992 62.26C115.992 62.392 116.028 62.5 116.076 62.608L119.016 69.52C119.172 69.892 119.448 70.12 119.856 70.12ZM125.465 69.328C125.465 69.736 125.789 70.06 126.209 70.06C126.617 70.06 126.941 69.736 126.941 69.328V62.272C126.941 61.864 126.617 61.54 126.209 61.54C125.789 61.54 125.465 61.864 125.465 62.272V69.328ZM129.189 69.328C129.189 69.736 129.513 70.06 129.933 70.06C130.341 70.06 130.665 69.736 130.665 69.328V67.072H132.525L134.565 69.676C134.733 69.904 134.949 70.06 135.285 70.06C135.645 70.06 135.993 69.784 135.993 69.376C135.993 69.148 135.897 68.992 135.753 68.812L134.145 66.784C135.273 66.436 136.053 65.62 136.053 64.276V64.252C136.053 63.52 135.801 62.896 135.357 62.44C134.817 61.912 133.989 61.6 132.933 61.6H129.933C129.513 61.6 129.189 61.924 129.189 62.344V69.328ZM130.665 65.764V62.944H132.813C133.905 62.944 134.553 63.436 134.553 64.336V64.36C134.553 65.212 133.881 65.764 132.825 65.764H130.665ZM139.89 69.328C139.89 69.736 140.226 70.06 140.634 70.06C141.042 70.06 141.378 69.736 141.378 69.328V62.968H143.43C143.802 62.968 144.102 62.656 144.102 62.284C144.102 61.912 143.802 61.6 143.43 61.6H137.85C137.466 61.6 137.166 61.912 137.166 62.284C137.166 62.656 137.466 62.968 137.85 62.968H139.89V69.328ZM149.051 70.132C151.247 70.132 152.663 68.872 152.663 66.364V62.272C152.663 61.864 152.339 61.54 151.931 61.54C151.511 61.54 151.187 61.864 151.187 62.272V66.436C151.187 67.984 150.383 68.764 149.075 68.764C147.755 68.764 146.951 67.936 146.951 66.376V62.272C146.951 61.864 146.627 61.54 146.219 61.54C145.799 61.54 145.475 61.864 145.475 62.272V66.436C145.475 68.872 146.867 70.132 149.051 70.132ZM153.902 69.376C153.902 69.76 154.202 70.06 154.586 70.06C154.898 70.06 155.15 69.892 155.27 69.592L155.978 67.972H160.058L160.742 69.544C160.874 69.856 161.114 70.06 161.462 70.06C161.858 70.06 162.158 69.748 162.158 69.352C162.158 69.256 162.134 69.148 162.074 69.04L158.954 62.08C158.786 61.708 158.498 61.48 158.078 61.48H158.006C157.586 61.48 157.286 61.708 157.118 62.08L153.998 69.04C153.938 69.16 153.902 69.268 153.902 69.376ZM156.542 66.664L158.018 63.268L159.494 66.664H156.542ZM163.76 69.256C163.76 69.676 164.084 70 164.504 70H169.04C169.412 70 169.712 69.7 169.712 69.328C169.712 68.956 169.412 68.656 169.04 68.656H165.236V62.272C165.236 61.864 164.912 61.54 164.504 61.54C164.084 61.54 163.76 61.864 163.76 62.272V69.256Z" fill="black"/>
</svg>
